<?xml version="1.0" encoding="UTF-8"?>
<svg version="1.1" xmlns="http://www.w3.org/2000/svg" width="512" height="512">
<path d="M0 0 C1.04374786 0.00406357 1.04374786 0.00406357 2.10858154 0.00820923 C13.23277333 0.07367938 23.54871685 1.053438 34.1875 4.4375 C35.40695313 4.81132812 36.62640625 5.18515625 37.8828125 5.5703125 C69.12585416 15.93888237 92.98215012 37.5511461 108.1875 66.4375 C108.46174805 67.14438965 108.73599609 67.8512793 109.01855469 68.57958984 C110.01463899 70.61477562 110.01463899 70.61477562 112.10424805 71.01171875 C112.87808838 71.04910156 113.65192871 71.08648437 114.44921875 71.125 C115.31353516 71.18147705 116.17785156 71.2379541 117.06835938 71.29614258 C117.99455078 71.34279053 118.92074219 71.38943848 119.875 71.4375 C129.11252876 72.11178936 137.35124422 73.53937024 146.1875 76.4375 C147.2703125 76.78554687 148.353125 77.13359375 149.46875 77.4921875 C162.43281051 82.05478161 173.8179811 89.50569603 184.1875 98.4375 C184.92097656 99.02660156 185.65445312 99.61570312 186.41015625 100.22265625 C195.98660303 108.17769405 203.20307267 118.23151345 209.3125 129 C209.69083984 129.66644531 210.06917969 130.33289063 210.45898438 131.01953125 C212.35789635 134.4991018 213.51455558 137.55080927 214.1875 141.4375 C214.78997559 141.41655273 215.39245117 141.39560547 216.01318359 141.37402344 C236.29905653 140.76571675 253.02038359 143.2524357 271.1875 152.4375 C272.24582031 152.97246094 273.30414063 153.50742187 274.39453125 154.05859375 C298.9386878 167.47263475 316.1427462 190.82674616 324 217.375 C329.57509458 236.47815261 329.55667994 259.49757018 323.1875 278.4375 C322.836875 279.5409375 322.48625 280.644375 322.125 281.78125 C312.97982368 307.94661557 294.22831848 328.33605758 269.86328125 341.19140625 C255.85445754 347.93389197 241.33970465 351.75853431 225.78511047 351.70492554 C224.30561654 351.71172221 224.30561654 351.71172221 222.79623383 351.71865618 C219.52336799 351.73121764 216.25067033 351.72968517 212.9777832 351.72802734 C210.61791268 351.73401776 208.25804412 351.74082449 205.8981781 351.74838257 C199.50951863 351.76599777 193.12091279 351.77073607 186.73223138 351.77201414 C182.73442359 351.77343887 178.73662486 351.77758769 174.73882103 351.78300858 C161.49317256 351.80060062 148.24755636 351.80985066 135.00189612 351.80834763 C134.2894662 351.80826772 133.57703628 351.8081878 132.84301758 351.80810547 C132.12970629 351.80802371 131.416395 351.80794195 130.68146821 351.80785771 C119.13077117 351.80704543 107.58020471 351.82617374 96.0295454 351.8543822 C84.13686014 351.88319411 72.24423839 351.89691794 60.35151738 351.89519465 C53.68775694 351.8945336 47.02411429 351.90029588 40.36037636 351.92155075 C34.08854016 351.94101071 27.81699178 351.94100453 21.54514503 351.92651749 C19.25395789 351.92443789 16.96275235 351.9290791 14.67159653 351.9412384 C-12.0220603 352.07363666 -34.20533685 346.0762851 -54.1484375 327.25390625 C-71.84968256 308.54041991 -78.89972024 285.90536009 -78.19921875 260.45703125 C-77.59384485 248.2597975 -73.80599004 237.52848297 -68.8125 226.4375 C-68.13792892 224.77401688 -67.46877295 223.10828665 -66.8125 221.4375 C-67.60011719 220.86644531 -68.38773438 220.29539062 -69.19921875 219.70703125 C-95.56192792 200.23843003 -113.95936533 173.29484863 -119.51171875 140.59765625 C-119.61097656 139.88480469 -119.71023437 139.17195312 -119.8125 138.4375 C-119.92207031 137.69371094 -120.03164062 136.94992187 -120.14453125 136.18359375 C-123.9387065 105.4760687 -116.32994107 74.3155573 -98.0625 49.29296875 C-94.51898924 44.79590908 -90.77203742 40.5703972 -86.8125 36.4375 C-86.12800781 35.68984375 -85.44351563 34.9421875 -84.73828125 34.171875 C-72.49537523 21.22743463 -56.60572236 11.83830705 -39.8125 6.125 C-38.80074707 5.77937012 -38.80074707 5.77937012 -37.76855469 5.42675781 C-25.28686983 1.43800728 -13.06393826 -0.12024677 0 0 Z " fill="#EFF9FE" transform="translate(184.8125,125.5625)"/>
<path d="M0 0 C17.44919065 0 17.44919065 0 23.9375 1.625 C25.05862183 1.89340698 25.05862183 1.89340698 26.20239258 2.16723633 C44.35747359 6.71031782 59.8032366 14.77159201 74 27 C74.73347656 27.58910156 75.46695313 28.17820313 76.22265625 28.78515625 C85.79910303 36.74019405 93.01557267 46.79401345 99.125 57.5625 C99.50333984 58.22894531 99.88167969 58.89539063 100.27148438 59.58203125 C102.17039635 63.0616018 103.32705558 66.11330927 104 70 C104.90371338 69.9685791 104.90371338 69.9685791 105.82568359 69.93652344 C126.11155653 69.32821675 142.83288359 71.8149357 161 81 C162.58748047 81.80244141 162.58748047 81.80244141 164.20703125 82.62109375 C188.7511878 96.03513475 205.9552462 119.38924616 213.8125 145.9375 C219.38759458 165.04065261 219.36917994 188.06007018 213 207 C212.649375 208.1034375 212.29875 209.206875 211.9375 210.34375 C202.79232368 236.50911557 184.04081848 256.89855758 159.67578125 269.75390625 C111.29974421 293.0374271 47.6976563 280 0 280 C0 187.6 0 95.2 0 0 Z " fill="#CEE6F4" transform="translate(295,197)"/>
<path d="M0 0 C1.04374786 0.00406357 1.04374786 0.00406357 2.10858154 0.00820923 C13.23277333 0.07367938 23.54871685 1.053438 34.1875 4.4375 C35.40695313 4.81132812 36.62640625 5.18515625 37.8828125 5.5703125 C68.80716688 15.83312022 93.44530219 37.50732234 108.1875 66.4375 C108.88059498 68.09335071 109.5582435 69.75635204 110.1875 71.4375 C108.93259766 71.49357422 108.93259766 71.49357422 107.65234375 71.55078125 C81.17013255 73.04645431 57.70614178 81.69608088 37.1875 98.4375 C36.21103516 99.18580078 36.21103516 99.18580078 35.21484375 99.94921875 C29.69248922 104.33942771 25.47697836 109.87876423 21.1875 115.4375 C20.57777344 116.21996094 19.96804687 117.00242187 19.33984375 117.80859375 C11.73151802 128.08589935 5.92872214 140.22834091 2.1875 152.4375 C1.77564453 153.77748047 1.77564453 153.77748047 1.35546875 155.14453125 C-1.12978117 164.09387949 -1.94201661 173.22061701 -2.8125 182.4375 C-3.781875 182.64503906 -4.75125 182.85257813 -5.75 183.06640625 C-27.76414838 188.01945097 -48.43383502 198.2834209 -61.375 217.5 C-62.19853502 218.8056043 -63.01554987 220.11550038 -63.8125 221.4375 C-76.84197193 219.35278449 -90.73158835 201.80029515 -98.0625 191.6875 C-109.12979231 175.75629515 -117.12111749 157.76651982 -119.8125 138.4375 C-119.92207031 137.69371094 -120.03164062 136.94992187 -120.14453125 136.18359375 C-123.9387065 105.4760687 -116.32994107 74.3155573 -98.0625 49.29296875 C-94.51898924 44.79590908 -90.77203742 40.5703972 -86.8125 36.4375 C-86.12800781 35.68984375 -85.44351563 34.9421875 -84.73828125 34.171875 C-72.49537523 21.22743463 -56.60572236 11.83830705 -39.8125 6.125 C-38.80074707 5.77937012 -38.80074707 5.77937012 -37.76855469 5.42675781 C-25.28686983 1.43800728 -13.06393826 -0.12024677 0 0 Z " fill="#FCE45F" transform="translate(184.8125,125.5625)"/>
<path d="M0 0 C18.5397114 0 18.5397114 0 25.125 1.6875 C25.87233398 1.86756592 26.61966797 2.04763184 27.38964844 2.2331543 C58.31851882 9.95218261 85.64769054 28.43238796 102.390625 55.82421875 C105.28746617 60.73980205 107.99578035 65.64544303 110 71 C108.74509766 71.05607422 108.74509766 71.05607422 107.46484375 71.11328125 C80.98263255 72.60895431 57.51864178 81.25858088 37 98 C36.02353516 98.74830078 36.02353516 98.74830078 35.02734375 99.51171875 C29.50498922 103.90192771 25.28947836 109.44126423 21 115 C20.39027344 115.78246094 19.78054687 116.56492187 19.15234375 117.37109375 C10.77210911 128.6910918 5.32851869 141.68148097 1 155 C0.67 155 0.34 155 0 155 C0 103.85 0 52.7 0 0 Z " fill="#F7BA57" transform="translate(185,126)"/>
<path d="M0 0 C4.03449965 3.57603378 6.52930307 7.25623445 6.91015625 12.74609375 C6.56241216 17.7756607 5.34288309 21.76308568 1.75 25.4375 C-2.03437679 28.08918919 -6.02519303 30.32089076 -10.0625 32.5625 C-11.13048828 33.16964844 -12.19847656 33.77679688 -13.29882812 34.40234375 C-15.36380166 35.57466639 -17.43346978 36.73876797 -19.50830078 37.89355469 C-21.76181974 39.16258887 -23.96361909 40.4850591 -26.16796875 41.8359375 C-30.91616431 44.30331415 -35.03104089 44.19731905 -40.25 43.4375 C-43.98099696 42.17355719 -46.55476364 40.38956485 -48.91015625 37.1640625 C-50.43982204 34.05121492 -50.68305479 31.95392946 -50.6875 28.5 C-50.70683594 27.50097656 -50.72617187 26.50195312 -50.74609375 25.47265625 C-50.11222737 21.59459184 -49.03586757 19.14911152 -46.25 16.4375 C-42.4595534 13.79405853 -38.47517119 11.55431147 -34.4375 9.3125 C-33.36951172 8.70535156 -32.30152344 8.09820312 -31.20117188 7.47265625 C-29.13953992 6.30223069 -27.07448834 5.13780243 -25.00561523 3.98022461 C-22.69764146 2.688111 -20.40068763 1.37990056 -18.109375 0.05859375 C-11.94418118 -3.43670056 -6.33788021 -3.04705779 0 0 Z " fill="#FDE55E" transform="translate(50.25,315.5625)"/>
<path d="M0 0 C4.1730967 1.57264049 7.83965613 3.72102375 11.625 6.0625 C12.5840625 6.62388672 13.543125 7.18527344 14.53125 7.76367188 C33.92028277 19.25784781 33.92028277 19.25784781 35.734375 25.95703125 C36.38636038 30.97156587 35.64733964 34.77467853 33.25 39.3125 C30.40455259 42.71122885 27.88304041 44.32001318 23.75 45.8125 C14.88572624 46.4168823 7.85745088 42.08184732 0.48730469 37.71508789 C-1.25259358 36.68596594 -3.00389406 35.67883025 -4.7578125 34.67382812 C-11.30282657 30.853384 -16.72320187 27.4151972 -21 21 C-21.68923878 15.44601777 -21.7242151 10.52889855 -19.3125 5.4375 C-13.61265284 -0.570447 -7.96031682 -1.18765708 0 0 Z " fill="#FDE55E" transform="translate(21,133)"/>
<path d="M0 0 C4.004793 2.0023965 6.6587028 4.17998877 9 8 C10.63968743 12.91906228 10.55903081 17.25302871 9 22.125 C3.95927838 29.37103733 -4.91900254 33.48870177 -12.4375 37.75 C-13.42298828 38.32621094 -14.40847656 38.90242188 -15.42382812 39.49609375 C-28.35318026 46.84757429 -28.35318026 46.84757429 -35.25537109 45.58862305 C-40.40771104 44.06814672 -42.96600673 41.32114194 -46 37 C-47.86086863 33.27826273 -47.42624401 29.06185464 -47 25 C-43.00022039 15.95702001 -31.29165519 11.33121864 -23.0625 6.6875 C-22.11826172 6.15060547 -21.17402344 5.61371094 -20.20117188 5.06054688 C-12.96660094 0.95387919 -8.50258814 -0.87667929 0 0 Z " fill="#F7B956" transform="translate(360,133)"/>
<path d="M0 0 C4.7344316 1.91391916 7.72684393 5.45368786 10 10 C10.13587125 12.90764482 10.21277951 15.79009045 10.23828125 18.69921875 C10.246353 19.56762894 10.25442474 20.43603912 10.26274109 21.33076477 C10.27658651 23.17255658 10.28730661 25.01437409 10.29516602 26.85620117 C10.31232671 29.65919479 10.35620146 32.46099279 10.40039062 35.26367188 C10.41052233 37.05467884 10.41903694 38.84569583 10.42578125 40.63671875 C10.44328934 41.46926682 10.46079742 42.30181488 10.47883606 43.15959167 C10.45756702 48.93089537 9.30822687 52.2464573 6 57 C1.98499315 60.44143444 -2.81009237 61.28544492 -8 61 C-13.30666409 59.42108058 -17.04063679 56.73498114 -20 52 C-21.36282367 48.12448804 -21.1978472 44.07556698 -21.23828125 40.015625 C-21.246353 39.24120056 -21.25442474 38.46677612 -21.26274109 37.66888428 C-21.27654712 36.03155736 -21.28728478 34.39420209 -21.29516602 32.75683594 C-21.30667308 31.09268686 -21.32710492 29.42857432 -21.35668945 27.76464844 C-21.39962021 25.34805467 -21.41556971 22.93255402 -21.42578125 20.515625 C-21.44328934 19.78200745 -21.46079742 19.04838989 -21.47883606 18.2925415 C-21.45605546 12.78551772 -20.02350052 8.61517743 -17 4 C-12.01192931 -0.86641043 -6.60486227 -0.82813258 0 0 Z " fill="#FCE45E" transform="translate(190,35)"/>
<path d="M0 0 C7.74267578 0.80517578 7.74267578 0.80517578 10.05859375 2.55859375 C10.51363281 3.17863281 10.96867188 3.79867187 11.4375 4.4375 C11.91058594 5.05496094 12.38367188 5.67242187 12.87109375 6.30859375 C15.52254008 10.28117597 15.1976404 14.06308719 15.23828125 18.69921875 C15.246353 19.56762894 15.25442474 20.43603912 15.26274109 21.33076477 C15.27658651 23.17255658 15.28730661 25.01437409 15.29516602 26.85620117 C15.31232671 29.65919479 15.35620146 32.46099279 15.40039062 35.26367188 C15.41052233 37.05467884 15.41903694 38.84569583 15.42578125 40.63671875 C15.44328934 41.46926682 15.46079742 42.30181488 15.47883606 43.15959167 C15.45757749 48.92805486 14.32490712 52.25760635 11 57 C7.82599496 59.44154234 4.98161899 60.55759789 1 61 C0 60 0 60 -0.12025452 57.60191345 C-0.11803391 56.53824051 -0.11581329 55.47456757 -0.11352539 54.37866211 C-0.11344986 53.17749252 -0.11337433 51.97632294 -0.11329651 50.73875427 C-0.10813522 49.4314888 -0.10297394 48.12422333 -0.09765625 46.77734375 C-0.09579198 45.43355868 -0.09436812 44.08977293 -0.09336853 42.74598694 C-0.08954402 39.20317723 -0.07971432 35.6604083 -0.06866455 32.11761475 C-0.05844899 28.50484773 -0.0538706 24.89207416 -0.04882812 21.27929688 C-0.03809198 14.1861812 -0.02101636 7.09309326 0 0 Z " fill="#F7BB57" transform="translate(185,35)"/>
</svg>
